<svg width="130" height="24" viewBox="0 0 130 24" fill="none" xmlns="http://www.w3.org/2000/svg">
<path d="M29.9688 0.59375L26.2188 21.5938C26.1354 22.0104 25.9479 22.3698 25.6562 22.6719C25.3646 22.974 25.0104 23.1667 24.5938 23.25C24.1667 23.3229 23.7604 23.276 23.375 23.1094C23 22.9427 22.7031 22.6823 22.4844 22.3281L15.0469 10.1094L7.59375 22.3281C7.41667 22.6302 7.17188 22.8646 6.85938 23.0312C6.55729 23.1979 6.22917 23.2812 5.875 23.2812C5.38542 23.2812 4.95312 23.125 4.57812 22.8125C4.20312 22.5 3.97396 22.0938 3.89062 21.5938L0.109375 0.59375H4.23438L6.92188 15.3906L13.3281 5.17188C13.5052 4.86979 13.7448 4.63542 14.0469 4.46875C14.3594 4.30208 14.6927 4.21875 15.0469 4.21875C15.401 4.21875 15.7292 4.30208 16.0312 4.46875C16.3333 4.63542 16.5833 4.86979 16.7812 5.17188L23.1562 15.3906L25.8438 0.59375H29.9688ZM55.1875 23H51.125V17.5H36.8438V23H32.7812V11.7969C32.7812 10.1615 33.0625 8.65625 33.625 7.28125C34.1875 5.90625 34.9688 4.72396 35.9688 3.73438C36.9688 2.74479 38.151 1.97396 39.5156 1.42188C40.8802 0.869792 42.3698 0.59375 43.9844 0.59375H53.1406C53.4219 0.59375 53.6875 0.645833 53.9375 0.75C54.1875 0.854167 54.4062 1 54.5938 1.1875C54.7812 1.375 54.9271 1.59375 55.0312 1.84375C55.1354 2.09375 55.1875 2.35938 55.1875 2.64062V23ZM36.8438 13.4375H51.125V4.65625H43.9844C43.8594 4.65625 43.5938 4.67708 43.1875 4.71875C42.7917 4.75 42.3281 4.83854 41.7969 4.98438C41.276 5.13021 40.724 5.35417 40.1406 5.65625C39.5573 5.95833 39.0208 6.375 38.5312 6.90625C38.0417 7.4375 37.6354 8.10417 37.3125 8.90625C37 9.69792 36.8438 10.6615 36.8438 11.7969V13.4375ZM82.3438 0.59375L71.7344 22.2031C71.5677 22.5365 71.3177 22.8021 70.9844 23C70.6615 23.2083 70.3021 23.3125 69.9062 23.3125C69.5208 23.3125 69.1615 23.2083 68.8281 23C68.5052 22.8021 68.2552 22.5365 68.0781 22.2031L57.4844 0.59375H62.0312L69.9062 16.7344L77.8125 0.59375H82.3438ZM103.062 13.8438H90.2344V9.75H103.062V13.8438ZM104.891 23H90.2344C89.6719 23 89.0573 22.901 88.3906 22.7031C87.724 22.5052 87.1042 22.1823 86.5312 21.7344C85.9688 21.276 85.4948 20.6875 85.1094 19.9688C84.7344 19.2396 84.5469 18.349 84.5469 17.2969V2.64062C84.5469 2.35938 84.599 2.09375 84.7031 1.84375C84.8073 1.59375 84.9479 1.375 85.125 1.1875C85.3125 1 85.5312 0.854167 85.7812 0.75C86.0312 0.645833 86.3021 0.59375 86.5938 0.59375H104.891V4.65625H88.6094V17.2969C88.6094 17.8281 88.75 18.2344 89.0312 18.5156C89.3125 18.7969 89.724 18.9375 90.2656 18.9375H104.891V23ZM127.25 13.8438H114.422V9.75H127.25V13.8438ZM129.078 23H114.422C113.859 23 113.245 22.901 112.578 22.7031C111.911 22.5052 111.292 22.1823 110.719 21.7344C110.156 21.276 109.682 20.6875 109.297 19.9688C108.922 19.2396 108.734 18.349 108.734 17.2969V2.64062C108.734 2.35938 108.786 2.09375 108.891 1.84375C108.995 1.59375 109.135 1.375 109.312 1.1875C109.5 1 109.719 0.854167 109.969 0.75C110.219 0.645833 110.49 0.59375 110.781 0.59375H129.078V4.65625H112.797V17.2969C112.797 17.8281 112.938 18.2344 113.219 18.5156C113.5 18.7969 113.911 18.9375 114.453 18.9375H129.078V23Z" fill="#FFFCFC"/>
</svg>
